<svg width="18" height="18" viewBox="0 0 18 18" fill="none" xmlns="http://www.w3.org/2000/svg">
<path d="M9 13.5C8.41887 13.5 7.83773 13.2458 7.34203 12.7308L0 5.11875V15.75C0 16.9922 0.755508 18 1.6875 18H16.3125C17.2445 18 18 16.9927 18 15.75V5.11875L10.6594 12.7359C10.1637 13.2469 9.58008 13.5 9 13.5ZM0.572695 3.81094L8.03285 11.55C8.60203 12.1406 9.39937 12.1406 9.96855 11.55L17.4287 3.81094C17.7574 3.43594 18 2.85938 18 2.25C18 1.00734 17.2441 0 16.3125 0H1.6875C0.755508 0 0 1.00734 0 2.25C0 2.85938 0.211289 3.43594 0.572695 3.81094Z" fill="black"/>
</svg>
