<svg width="44" height="50" viewBox="0 0 44 50" fill="none" xmlns="http://www.w3.org/2000/svg">
<path d="M27.0908 1.16992C25.4997 0.436523 23.7446 0 21.8781 0C16.6342 0 12.1599 3.23535 10.3032 7.8125H18.2331L27.0908 1.16992ZM33.453 7.8125C32.6814 5.91113 31.4342 4.27734 29.889 2.97656L23.4399 7.8125H33.453ZM21.8781 25C28.7824 25 34.3799 19.4033 34.3799 12.5C34.3799 11.9648 34.2871 11.4551 34.2226 10.9375H9.53358C9.46815 11.4551 9.37634 11.9648 9.37634 12.5C9.37634 19.4033 14.9738 25 21.8781 25ZM7.81361 29.2676V50H20.3408L10.7252 28.3672C9.72264 28.5519 8.74538 28.8541 7.81361 29.2676ZM0 45.3125C0 47.9014 2.09893 50 4.68817 50V31.2734C1.84401 33.6807 0 37.2324 0 41.25V45.3125ZM25.0036 40.625H19.5946L23.7622 50H25.0036C27.5889 50 29.6917 47.8975 29.6917 45.3125C29.6917 42.7275 27.5889 40.625 25.0036 40.625ZM30.6294 28.125H28.9973C26.8251 29.1191 24.4185 29.6875 21.8781 29.6875C19.3377 29.6875 16.9311 29.1191 14.7589 28.125H14.0391L18.2067 37.5H25.0036C29.3118 37.5 32.8172 41.0049 32.8172 45.3125C32.8172 47.0781 32.2058 48.6904 31.2144 50H39.0681C41.6573 50 43.7562 47.9014 43.7562 45.3125V41.25C43.7562 34.001 37.8794 28.125 30.6294 28.125Z" fill="black"/>
</svg>
