<svg width="18" height="18" viewBox="0 0 18 18" fill="none" xmlns="http://www.w3.org/2000/svg">
<g clip-path="url(#clip0_301_2327)">
<path d="M17.4864 12.7196L13.5489 11.0321C13.3807 10.9604 13.1937 10.9453 13.0162 10.989C12.8386 11.0328 12.6801 11.133 12.5645 11.2747L10.8207 13.4051C8.08409 12.1148 5.88171 9.91244 4.59141 7.17579L6.72187 5.43204C6.86379 5.31661 6.96424 5.15809 7.00801 4.98048C7.05178 4.80286 7.03649 4.61582 6.96445 4.44766L5.27695 0.510165C5.19789 0.328902 5.05806 0.180907 4.88157 0.0916993C4.70508 0.00249146 4.50299 -0.0223379 4.31016 0.0214927L0.653906 0.865243C0.467989 0.908175 0.302114 1.01286 0.183352 1.1622C0.0645909 1.31155 -4.28277e-05 1.49674 2.12914e-08 1.68755C2.12914e-08 10.7051 7.30898 18 16.3125 18C16.5034 18.0002 16.6886 17.9356 16.8381 17.8168C16.9875 17.698 17.0922 17.5321 17.1352 17.3461L17.9789 13.6899C18.0225 13.4961 17.9971 13.2932 17.9072 13.1161C17.8173 12.939 17.6685 12.7988 17.4864 12.7196V12.7196Z" fill="black"/>
</g>
<defs>
<clipPath id="clip0_301_2327">
<rect width="18" height="18" fill="white"/>
</clipPath>
</defs>
</svg>
